HIERARCHY
ROOT Hips
{
	OFFSET 0.000000 0.000000 0.000000
	CHANNELS 6 Xposition Yposition Zposition Xrotation Yrotation Zrotation
	JOINT LeftUpLeg_virtual
	{
		OFFSET 0.000000 0.000000 0.000000
		CHANNELS 3 Xrotation Yrotation Zrotation
		JOINT LeftUpLeg
		{
			OFFSET 11.394100 -6.187798 -0.413800
			CHANNELS 3 Xrotation Yrotation Zrotation
			JOINT LeftLeg
			{
				OFFSET 0.430247 -32.302673 3.732800
				CHANNELS 3 Xrotation Yrotation Zrotation
				JOINT LeftFoot
				{
					OFFSET -0.430247 -48.264931 -6.423300
					CHANNELS 3 Xrotation Yrotation Zrotation
					JOINT LeftToeBase
					{
						OFFSET 4.230900 -16.068199 23.438400
						CHANNELS 3 Xrotation Yrotation Zrotation
						JOINT LeftToe_End
						{
							OFFSET 4.510700 0.695400 19.974600
							CHANNELS 3 Xrotation Yrotation Zrotation
							End Site
							{
								OFFSET 0 0 0
							}
						}
					}
				}
			}
		}
	}
	JOINT RightUpLeg_virtual
	{
		OFFSET 0.000000 0.000000 0.000000
		CHANNELS 3 Xrotation Yrotation Zrotation
		JOINT RightUpLeg
		{
			OFFSET -11.333700 -6.187798 -0.413800
			CHANNELS 3 Xrotation Yrotation Zrotation
			JOINT RightLeg
			{
				OFFSET -0.430392 -32.302628 3.733000
				CHANNELS 3 Xrotation Yrotation Zrotation
				JOINT RightFoot
				{
					OFFSET 0.430392 -48.264973 -6.423500
					CHANNELS 3 Xrotation Yrotation Zrotation
					JOINT RightToeBase
					{
						OFFSET -4.230900 -16.068199 23.438400
						CHANNELS 3 Xrotation Yrotation Zrotation
						JOINT RightToe_End
						{
							OFFSET -4.510700 0.695400 19.974600
							CHANNELS 3 Xrotation Yrotation Zrotation
							End Site
							{
								OFFSET 0 0 0
							}
						}
					}
				}
			}
		}
	}
	JOINT Spine_virtual
	{
		OFFSET 0.000000 0.000000 0.000000
		CHANNELS 3 Xrotation Yrotation Zrotation
		JOINT Spine
		{
			OFFSET -0.002400 12.777504 0.315300
			CHANNELS 3 Xrotation Yrotation Zrotation
			JOINT Spine1
			{
				OFFSET -0.002067 5.816869 0.032633
				CHANNELS 3 Xrotation Yrotation Zrotation
				JOINT Spine1_split
				{
					OFFSET -0.002067 5.816869 0.032633
					CHANNELS 3 Xrotation Yrotation Zrotation
					JOINT Spine2
					{
						OFFSET -0.002067 5.816869 0.032633
						CHANNELS 3 Xrotation Yrotation Zrotation
						JOINT Neck_virtual
						{
							OFFSET 0.000000 0.000000 0.000000
							CHANNELS 3 Xrotation Yrotation Zrotation
							JOINT Neck
							{
								OFFSET -0.003700 21.199493 -0.826900
								CHANNELS 3 Xrotation Yrotation Zrotation
								JOINT Head
								{
									OFFSET 0.000000 20.442200 4.834800
									CHANNELS 3 Xrotation Yrotation Zrotation
									JOINT HeadTop_End
									{
										OFFSET 0.000000 34.668396 4.968400
										CHANNELS 3 Xrotation Yrotation Zrotation
										End Site
										{
											OFFSET 0 0 0
										}
									}
								}
							}
						}
						JOINT LeftShoulder_virtual
						{
							OFFSET 0.000000 0.000000 0.000000
							CHANNELS 3 Xrotation Yrotation Zrotation
							JOINT LeftShoulder
							{
								OFFSET 3.288150 8.794197 -1.372250
								CHANNELS 3 Xrotation Yrotation Zrotation
								JOINT LeftShoulder_split
								{
									OFFSET 3.288150 8.794197 -1.372250
									CHANNELS 3 Xrotation Yrotation Zrotation
									JOINT LeftArm
									{
										OFFSET 11.953299 -2.279007 -0.146200
										CHANNELS 3 Xrotation Yrotation Zrotation
										JOINT LeftForeArm
										{
											OFFSET 18.448900 0.000000 0.000000
											CHANNELS 3 Xrotation Yrotation Zrotation
											JOINT LeftHand
											{
												OFFSET 29.527798 0.000000 0.000000
												CHANNELS 3 Xrotation Yrotation Zrotation
												End Site
												{
													OFFSET 0 0 0
												}
											}
										}
									}
								}
							}
						}
						JOINT RightShoulder_virtual
						{
							OFFSET 0.000000 0.000000 0.000000
							CHANNELS 3 Xrotation Yrotation Zrotation
							JOINT RightShoulder
							{
								OFFSET -3.249400 8.794197 -1.372250
								CHANNELS 3 Xrotation Yrotation Zrotation
								JOINT RightShoulder_split
								{
									OFFSET -3.249400 8.794197 -1.372250
									CHANNELS 3 Xrotation Yrotation Zrotation
									JOINT RightArm
									{
										OFFSET -11.953299 -2.279007 -0.146200
										CHANNELS 3 Xrotation Yrotation Zrotation
										JOINT RightForeArm
										{
											OFFSET -18.448900 0.000000 0.000000
											CHANNELS 3 Xrotation Yrotation Zrotation
											JOINT RightHand
											{
												OFFSET -29.527802 0.000000 0.000000
												CHANNELS 3 Xrotation Yrotation Zrotation
												End Site
												{
													OFFSET 0 0 0
												}
											}
										}
									}
								}
							}
						}
					}
				}
			}
		}
	}
}
MOTION
Frames: 10
Frame Time: 0.03333333
7.397722 101.609764 -0.152622 0.000000 0.000000 0.000000 0.023891 -13.961592 -2.422331 -16.875920 21.557272 8.852823 21.502962 10.074673 5.290238 -5.861968 7.201544 -6.624799 -0.000001 -0.000008 0.000005 0.000000 0.000000 0.000000 0.023891 -13.961592 -2.422331 -13.715004 -18.732830 -7.877299 10.942427 9.700176 -2.995975 0.723804 8.087472 8.993705 0.000000 0.000000 0.000000 0.000000 0.000000 0.000000 0.023891 -13.961592 -2.422331 1.265498 -1.101554 -1.740984 0.247988 -0.899452 -0.732542 0.000000 0.000000 0.000000 0.000000 0.000000 0.000000 0.243785 -0.917160 -0.703879 0.749590 2.295821 1.468098 -1.250656 13.693914 -1.535067 0.000000 0.000000 0.000000 0.243785 -0.917160 -0.703879 -1.488744 9.670792 -3.001459 0.000000 0.000000 0.000000 40.860476 -60.704836 -25.987208 0.000005 -22.817330 0.000021 0.000000 0.000000 0.000000 0.243785 -0.917160 -0.703879 4.389556 5.095593 -14.946399 0.000000 0.000000 0.000000 -41.397865 -19.780018 36.650826 -179.999991 72.302299 179.999978 0.000000 0.000000 0.000000 
7.040332 101.623390 -0.147018 0.000000 0.000000 0.000000 0.047852 -13.590635 -2.419599 -16.898774 21.375118 9.075499 21.383179 10.074347 5.251167 -5.672643 7.006067 -6.820856 -0.000001 -0.000008 0.000005 0.000000 0.000000 0.000000 0.047852 -13.590635 -2.419599 -13.680110 -18.501567 -7.812780 11.293430 9.710010 -2.743310 0.457587 7.447774 8.683173 -0.000004 -0.000006 0.000002 0.000000 0.000000 0.000000 0.047852 -13.590635 -2.419599 1.273072 -1.080208 -1.589745 0.241808 -0.884485 -0.647218 0.000000 0.000000 0.000000 0.000000 0.000000 0.000000 0.237302 -0.899713 -0.618708 0.663437 2.273472 1.368833 -1.324470 13.444066 -1.498671 0.000000 0.000000 0.000000 0.237302 -0.899713 -0.618708 -1.475811 9.676770 -3.126218 0.000000 0.000000 0.000000 40.863471 -61.027658 -25.944149 -0.000013 -22.683941 0.000018 0.000000 0.000000 0.000000 0.237302 -0.899713 -0.618708 4.393938 5.191678 -14.254580 0.000000 0.000000 0.000000 -38.714800 -17.278398 37.271888 -179.999937 73.320387 179.999950 0.000000 0.000000 0.000000 
6.663452 101.642563 -0.144329 0.000000 0.000000 0.000000 0.032546 -13.225417 -2.443781 -16.873433 21.148246 9.329950 21.247889 10.074023 5.199242 -5.466014 6.811347 -7.035622 -0.000001 -0.000008 0.000005 0.000000 0.000000 0.000000 0.032546 -13.225417 -2.443781 -13.558586 -18.298524 -7.651636 11.590543 9.717055 -2.570395 0.204903 6.827219 8.386490 -0.000003 0.000005 0.000003 0.000000 0.000000 0.000000 0.032546 -13.225417 -2.443781 1.287838 -1.076858 -1.443436 0.239822 -0.882720 -0.566063 0.000000 0.000000 0.000000 0.000000 0.000000 0.000000 0.235036 -0.895539 -0.537204 0.553540 2.244816 1.305164 -1.371440 13.207167 -1.460610 0.000000 0.000000 0.000000 0.235036 -0.895539 -0.537204 -1.467160 9.681590 -3.211861 0.000000 0.000000 0.000000 40.861378 -61.366709 -25.900156 -0.000005 -22.538053 0.000005 0.000000 0.000000 0.000000 0.235036 -0.895539 -0.537204 4.385647 5.270033 -13.433538 0.000000 0.000000 0.000000 -35.974002 -14.618142 37.730406 -179.999950 74.386286 179.999950 0.000000 0.000000 0.000000 
6.274447 101.668282 -0.144390 0.000000 0.000000 0.000000 -0.018069 -12.840915 -2.472605 -16.772445 20.862017 9.536594 21.056423 10.073333 5.190268 -5.228363 6.630132 -7.278934 -0.000001 -0.000008 0.000005 0.000000 0.000000 0.000000 -0.018069 -12.840915 -2.472605 -13.368109 -18.095169 -7.478387 11.840747 9.724330 -2.387917 -0.036725 6.190622 8.078907 -0.000001 -0.000005 -0.000000 0.000000 0.000000 0.000000 -0.018069 -12.840915 -2.472605 1.307015 -1.090802 -1.310366 0.240734 -0.893318 -0.492670 0.000000 0.000000 0.000000 0.000000 0.000000 0.000000 0.235762 -0.903962 -0.463006 0.414344 2.204613 1.287390 -1.405870 12.968854 -1.411019 0.000000 0.000000 0.000000 0.235762 -0.903962 -0.463006 -1.463775 9.674971 -3.227008 0.000000 0.000000 0.000000 40.806388 -61.723409 -25.910213 -0.000020 -22.361303 0.000005 0.000000 0.000000 0.000000 0.235762 -0.903962 -0.463006 4.361891 5.326275 -12.458676 0.000000 0.000000 0.000000 -33.127459 -11.766428 37.966771 -179.999896 75.519667 179.999882 0.000000 0.000000 0.000000 
5.874683 101.696274 -0.143230 0.000000 0.000000 0.000000 -0.052496 -12.388857 -2.472123 -16.634402 20.466230 9.653667 20.808743 10.072394 5.215226 -4.958041 6.486552 -7.534616 -0.000001 -0.000007 0.000005 0.000000 0.000000 0.000000 -0.052496 -12.388857 -2.472123 -13.200977 -17.943272 -7.360243 12.096259 9.733031 -2.171839 -0.293413 5.552356 7.752727 -0.000001 -0.000001 -0.000001 0.000000 0.000000 0.000000 -0.052496 -12.388857 -2.472123 1.326559 -1.117774 -1.194498 0.242422 -0.913045 -0.428931 0.000000 0.000000 0.000000 0.000000 0.000000 0.000000 0.237404 -0.921773 -0.398159 0.245891 2.150833 1.314671 -1.442959 12.716746 -1.341031 0.000000 0.000000 0.000000 0.237404 -0.921773 -0.398159 -1.465264 9.650773 -3.160746 0.000000 0.000000 0.000000 40.671738 -62.091453 -26.006191 -0.000005 -22.144909 -0.000012 0.000000 0.000000 0.000000 0.237404 -0.921773 -0.398159 4.323499 5.361359 -11.334623 0.000000 0.000000 0.000000 -30.148096 -8.736842 37.963909 179.999991 76.757925 -179.999991 0.000000 0.000000 0.000000 
5.463533 101.721512 -0.138519 0.000000 0.000000 0.000000 -0.039049 -11.840927 -2.448149 -16.529270 19.966999 9.726910 20.545370 10.071530 5.241102 -4.668512 6.354758 -7.783648 -0.000001 -0.000006 0.000005 0.000000 0.000000 0.000000 -0.039049 -11.840927 -2.448149 -13.096519 -17.929412 -7.263293 12.377960 9.739290 -1.988971 -0.578585 4.961760 7.429966 -0.000001 -0.000004 -0.000001 0.000000 0.000000 0.000000 -0.039049 -11.840927 -2.448149 1.340960 -1.151356 -1.092796 0.241442 -0.936986 -0.373973 0.000000 0.000000 0.000000 0.000000 0.000000 0.000000 0.236523 -0.944046 -0.341987 0.053869 2.085699 1.372982 -1.496593 12.443519 -1.245629 0.000000 0.000000 0.000000 0.236523 -0.944046 -0.341987 -1.470063 9.611230 -3.030264 0.000000 0.000000 0.000000 40.475711 -62.457647 -26.171328 -0.000006 -21.892903 0.000006 0.000000 0.000000 0.000000 0.236523 -0.944046 -0.341987 4.274733 5.381157 -10.099679 0.000000 0.000000 0.000000 -27.037282 -5.580602 37.759331 -179.999950 78.151489 179.999964 0.000000 0.000000 0.000000 
5.048825 101.742661 -0.132690 0.000000 0.000000 0.000000 0.002667 -11.252808 -2.420885 -16.475162 19.465983 9.812652 20.295257 10.070480 5.259294 -4.377732 6.198771 -8.019533 -0.000001 -0.000006 0.000005 0.000000 0.000000 0.000000 0.002667 -11.252808 -2.420885 -13.043231 -18.122254 -7.128402 12.675423 9.742719 -1.929176 -0.877588 4.527335 7.143942 -0.000002 -0.000001 0.000003 0.000000 0.000000 0.000000 0.002667 -11.252808 -2.420885 1.343753 -1.184561 -0.997272 0.233191 -0.959908 -0.323775 0.000000 0.000000 0.000000 0.000000 0.000000 0.000000 0.228489 -0.965321 -0.290682 -0.152121 2.015353 1.437611 -1.576693 12.147948 -1.126131 0.000000 0.000000 0.000000 0.228489 -0.965321 -0.290682 -1.476130 9.567795 -2.877919 0.000000 0.000000 0.000000 40.288427 -62.805789 -26.334242 -0.000001 -21.619559 0.000014 0.000000 0.000000 0.000000 0.228489 -0.965321 -0.290682 4.221777 5.394544 -8.819605 0.000000 0.000000 0.000000 -23.826408 -2.362815 37.438866 -179.999882 79.756460 179.999882 0.000000 0.000000 0.000000 
4.647331 101.757545 -0.128136 0.000000 0.000000 0.000000 0.058669 -10.765597 -2.367251 -16.436927 19.108682 9.891684 20.040062 10.068959 5.292998 -4.100604 6.034429 -8.248335 -0.000001 -0.000008 0.000005 0.000000 0.000000 0.000000 0.058669 -10.765597 -2.367251 -13.095698 -18.426440 -6.986682 13.028946 9.741415 -1.991596 -1.165611 4.306199 6.902834 -0.000001 0.000001 0.000001 0.000000 0.000000 0.000000 0.058669 -10.765597 -2.367251 1.328774 -1.211338 -0.900662 0.212872 -0.977278 -0.272055 0.000000 0.000000 0.000000 0.000000 0.000000 0.000000 0.208450 -0.980871 -0.238133 -0.361506 1.947775 1.479996 -1.686476 11.834361 -0.990907 0.000000 0.000000 0.000000 0.208450 -0.980871 -0.238133 -1.481798 9.537457 -2.757783 0.000000 0.000000 0.000000 40.213227 -63.122669 -26.388673 -0.000001 -21.344669 -0.000003 0.000000 0.000000 0.000000 0.208450 -0.980871 -0.238133 4.170660 5.410464 -7.571488 0.000000 0.000000 0.000000 -20.570949 0.863308 37.112608 -179.999882 81.625487 179.999896 0.000000 0.000000 0.000000 
4.269483 101.760735 -0.121613 0.000000 0.000000 0.000000 0.170515 -10.470520 -2.249922 -16.431903 18.946040 9.920683 19.776152 10.066915 5.364391 -3.847493 5.905834 -8.479598 -0.000001 -0.000010 0.000005 0.000000 0.000000 0.000000 0.170515 -10.470520 -2.249922 -13.334157 -18.613490 -6.905925 13.479705 9.738505 -2.074890 -1.448877 4.180457 6.675981 -0.000001 0.000000 0.000000 0.000000 0.000000 0.000000 0.170515 -10.470520 -2.249922 1.291855 -1.227253 -0.796517 0.176832 -0.985959 -0.212785 0.000000 0.000000 0.000000 0.000000 0.000000 0.000000 0.172701 -0.987309 -0.178432 -0.565741 1.890216 1.476708 -1.820812 11.510468 -0.853846 0.000000 0.000000 0.000000 0.172701 -0.987309 -0.178432 -1.486158 9.536004 -2.716618 0.000000 0.000000 0.000000 40.348571 -63.402665 -26.233717 -0.000004 -21.086548 0.000000 0.000000 0.000000 0.000000 0.172701 -0.987309 -0.178432 4.125649 5.435403 -6.423211 0.000000 0.000000 0.000000 -17.338097 4.070469 36.881546 179.999991 83.798566 -179.999978 0.000000 0.000000 0.000000 
3.902449 101.751823 -0.108082 0.000000 0.000000 0.000000 0.374163 -10.295591 -2.097791 -16.518094 18.848558 9.946679 19.543070 10.065216 5.430470 -3.622156 5.832866 -8.710623 -0.000001 -0.000007 0.000005 0.000000 0.000000 0.000000 0.374163 -10.295591 -2.097791 -13.720176 -18.622675 -6.854722 13.982732 9.736663 -2.114148 -1.732521 4.010073 6.432962 -0.000001 -0.000002 -0.000001 0.000000 0.000000 0.000000 0.374163 -10.295591 -2.097791 1.232002 -1.229583 -0.680426 0.123679 -0.984015 -0.143121 0.000000 0.000000 0.000000 0.000000 0.000000 0.000000 0.119805 -0.982597 -0.108780 -0.760278 1.846542 1.417080 -1.966705 11.184559 -0.730716 0.000000 0.000000 0.000000 0.119805 -0.982597 -0.108780 -1.488841 9.571428 -2.777129 0.000000 0.000000 0.000000 40.746631 -63.648511 -25.816426 0.000005 -20.857393 0.000009 0.000000 0.000000 0.000000 0.119805 -0.982597 -0.108780 4.088593 5.471936 -5.415393 0.000000 0.000000 0.000000 -14.192472 7.252893 36.808316 -179.999117 86.294509 179.999117 0.000000 0.000000 0.000000 
